<svg width="24" height="24" viewBox="0 0 24 24" fill="none" xmlns="http://www.w3.org/2000/svg">
<path fill-rule="evenodd" clip-rule="evenodd" d="M3.63286 5.91713L10.6829 2.31856C11.5101 1.8939 12.4913 1.8939 13.3186 2.31856L20.3686 5.91713C21.4799 6.58816 22.1 7.84391 21.9571 9.13427L22 16.2857C22 19.4416 19.4416 22 16.2857 22H7.71429C4.55837 22 2 19.4416 2 16.2857L2.04429 9.14284C1.89791 7.84955 2.51844 6.58952 3.63286 5.91713Z" stroke="#EFEFEF" stroke-width="2.5" stroke-linecap="round" stroke-linejoin="round"/>
<path fill-rule="evenodd" clip-rule="evenodd" d="M8.66858 22.0001V18.6658C8.66858 16.8243 10.1614 15.3315 12.0029 15.3315C13.8443 15.3315 15.3372 16.8243 15.3372 18.6658V22.0001" fill="#EFEFEF"/>
<path d="M8.66858 22.0001V18.6658C8.66858 16.8243 10.1614 15.3315 12.0029 15.3315C13.8443 15.3315 15.3372 16.8243 15.3372 18.6658V22.0001" stroke="#EFEFEF" stroke-width="2.5" stroke-linecap="round" stroke-linejoin="round"/>
</svg>
