<svg width="107" height="30" viewBox="0 0 107 30" fill="none" xmlns="http://www.w3.org/2000/svg">
<path d="M99.0669 29.9885C98.6029 29.9885 98.371 29.764 98.371 29.315V1.25033C98.371 0.801298 98.6029 0.576782 99.0669 0.576782H106.304C106.768 0.576782 107 0.801298 107 1.25033V29.315C107 29.764 106.768 29.9885 106.304 29.9885H99.0669Z" fill="#EFEFEF"/>
<path d="M70.8738 29.9885C70.4131 29.9885 70.1828 29.764 70.1828 29.315V1.25033C70.1828 0.801298 70.4131 0.576782 70.8738 0.576782H81.791C85.6911 0.576782 88.6393 1.17549 90.6354 2.37292C92.6315 3.54041 93.6296 5.32158 93.6296 7.71643C93.6296 9.54251 93.2303 10.9944 92.4319 12.0721C91.6641 13.1198 90.4972 13.8981 88.931 14.407V14.5867C90.7736 14.916 92.2323 15.5895 93.3071 16.6073C94.3819 17.6251 94.9194 19.092 94.9194 21.0079C94.9194 24.2409 93.8906 26.5459 91.833 27.923C89.8062 29.3 86.4282 29.9885 81.6989 29.9885H70.8738ZM78.7508 23.2979H82.2056C83.6489 23.2979 84.6931 23.1033 85.338 22.7142C86.0136 22.2951 86.3514 21.5916 86.3514 20.6037C86.3514 19.7955 86.0136 19.1967 85.338 18.8076C84.6624 18.3885 83.5875 18.1789 82.1135 18.1789H78.7508V23.2979ZM78.7508 12.2517H81.745C82.9119 12.2517 83.7564 12.0272 84.2785 11.5781C84.8006 11.1291 85.0616 10.4855 85.0616 9.64728C85.0616 8.89889 84.7545 8.31514 84.1403 7.89605C83.5568 7.47695 82.6816 7.2674 81.5146 7.2674H78.7508V12.2517Z" fill="#EFEFEF"/>
<path d="M0.691729 29.9885C0.476525 29.9885 0.307435 29.9287 0.184461 29.8089C0.061487 29.6892 0 29.5245 0 29.315L0.599499 1.25033C0.599499 0.801298 0.830076 0.576782 1.29123 0.576782H9.22306C9.59198 0.576782 9.8533 0.741427 10.007 1.07072L16.9704 14.9908L23.9338 1.07072C24.1183 0.741427 24.395 0.576782 24.7639 0.576782H32.6957C33.1262 0.576782 33.3414 0.801298 33.3414 1.25033L33.9409 29.315C33.9409 29.5245 33.8794 29.6892 33.7564 29.8089C33.6334 29.9287 33.4797 29.9885 33.2952 29.9885H26.2396C25.7785 29.9885 25.5479 29.764 25.5479 29.315L25.3634 21.412C25.3327 20.0948 25.348 18.7028 25.4095 17.236C25.471 15.7691 25.5325 14.3921 25.594 13.1048H25.4095C24.8561 14.3322 24.2413 15.6494 23.5649 17.0564C22.9193 18.4334 22.2429 19.7356 21.5358 20.963L17.985 27.2943C17.8312 27.5937 17.5546 27.7434 17.1549 27.7434H16.786C16.417 27.7434 16.1557 27.5937 16.002 27.2943L12.4511 20.963C11.7748 19.7356 11.0984 18.4334 10.4221 17.0564C9.7457 15.6494 9.13083 14.3322 8.57745 13.1048H8.39299C8.45447 14.422 8.51596 15.814 8.57745 17.2809C8.63893 18.7477 8.6543 20.1397 8.62356 21.4569L8.4391 29.315C8.4391 29.764 8.20852 29.9885 7.74737 29.9885H0.691729Z" fill="#EFEFEF"/>
<ellipse cx="52.0618" cy="15" rx="14.6694" ry="15" fill="#EFEFEF"/>
</svg>
