<svg width="186" height="53" viewBox="0 0 186 53" fill="none" xmlns="http://www.w3.org/2000/svg">
<path d="M172.21 52C171.403 52 171 51.6107 171 50.8321V2.16794C171 1.38931 171.403 1 172.21 1H184.79C185.597 1 186 1.38931 186 2.16794V50.8321C186 51.6107 185.597 52 184.79 52H172.21Z" fill="#EFEFEF"/>
<path d="M123.201 52C122.4 52 122 51.6107 122 50.8321V2.16794C122 1.38931 122.4 1 123.201 1H142.179C148.958 1 154.083 2.03817 157.553 4.1145C161.023 6.13893 162.758 9.22748 162.758 13.3802C162.758 16.5466 162.064 19.0641 160.676 20.9328C159.341 22.7496 157.313 24.0992 154.59 24.9817V25.2931C157.793 25.8641 160.329 27.0321 162.197 28.7969C164.066 30.5618 165 33.1053 165 36.4275C165 42.0336 163.212 46.0305 159.635 48.4183C156.112 50.8061 150.24 52 142.019 52H123.201ZM136.894 40.3985H142.899C145.408 40.3985 147.223 40.0611 148.344 39.3863C149.519 38.6595 150.106 37.4397 150.106 35.7267C150.106 34.3252 149.519 33.287 148.344 32.6122C147.17 31.8855 145.302 31.5221 142.739 31.5221H136.894V40.3985ZM136.894 21.2443H142.099C144.127 21.2443 145.595 20.855 146.503 20.0763C147.41 19.2977 147.864 18.1817 147.864 16.7282C147.864 15.4305 147.33 14.4183 146.263 13.6916C145.248 12.9649 143.727 12.6015 141.698 12.6015H136.894V21.2443Z" fill="#EFEFEF"/>
<path d="M1.20245 52C0.828351 52 0.53442 51.8962 0.320652 51.6885C0.106884 51.4809 0 51.1954 0 50.8321L1.04212 2.16794C1.04212 1.38931 1.44293 1 2.24457 1H16.0326C16.6739 1 17.1282 1.28549 17.3954 1.85649L29.5 25.9939L41.6046 1.85649C41.9253 1.28549 42.4062 1 43.0476 1H56.8356C57.5838 1 57.9579 1.38931 57.9579 2.16794L59 50.8321C59 51.1954 58.8931 51.4809 58.6793 51.6885C58.4656 51.8962 58.1984 52 57.8777 52H45.6128C44.8111 52 44.4103 51.6107 44.4103 50.8321L44.0897 37.1282C44.0362 34.8443 44.063 32.4305 44.1698 29.887C44.2767 27.3435 44.3836 24.9557 44.4905 22.7237H44.1698C43.2079 24.8519 42.139 27.1359 40.9633 29.5756C39.841 31.9634 38.6653 34.2214 37.4361 36.3496L31.2636 47.3282C30.9964 47.8473 30.5154 48.1069 29.8207 48.1069H29.1793C28.538 48.1069 28.0838 47.8473 27.8166 47.3282L21.644 36.3496C20.4683 34.2214 19.2926 31.9634 18.1168 29.5756C16.9411 27.1359 15.8723 24.8519 14.9103 22.7237H14.5897C14.6966 25.0076 14.8034 27.4214 14.9103 29.9649C15.0172 32.5084 15.0439 34.9221 14.9905 37.2061L14.6698 50.8321C14.6698 51.6107 14.269 52 13.4674 52H1.20245Z" fill="#EFEFEF"/>
<ellipse cx="90.5" cy="26.01" rx="25.5" ry="26.01" fill="#EFEFEF"/>
</svg>
