<svg width="24" height="24" viewBox="0 0 24 24" fill="none" xmlns="http://www.w3.org/2000/svg">
<path fill-rule="evenodd" clip-rule="evenodd" d="M16.2857 6.28571C16.2857 8.65265 14.3669 10.5714 12 10.5714C9.63307 10.5714 7.71429 8.65265 7.71429 6.28571C7.71429 3.91878 9.63307 2 12 2C13.1367 2 14.2267 2.45153 15.0305 3.25526C15.8342 4.05898 16.2857 5.14907 16.2857 6.28571Z" stroke="#656565" stroke-width="2.25" stroke-linecap="round" stroke-linejoin="round"/>
<path fill-rule="evenodd" clip-rule="evenodd" d="M17 14.8571H7.00002C5.02757 14.8571 3.42859 16.4561 3.42859 18.4285C3.42859 20.401 5.02757 22 7.00002 22H17C18.9725 22 20.5714 20.401 20.5714 18.4285C20.5714 16.4561 18.9725 14.8571 17 14.8571V14.8571Z" stroke="#656565" stroke-width="2.25" stroke-linecap="round" stroke-linejoin="round"/>
</svg>
